<?xml version="1.0" encoding="UTF-8" standalone="no"?><svg xmlns="http://www.w3.org/2000/svg" xmlns:xlink="http://www.w3.org/1999/xlink" contentStyleType="text/css" height="340px" preserveAspectRatio="none" style="width:628px;height:340px;background:#FFFFFF;" version="1.1" viewBox="0 0 628 340" width="628px" zoomAndPan="magnify"><defs/><g><!--class nz.ac.wgtn.swen225.lc.domain.Domain--><a href="Domain.html" target="_top" title="Domain.html" xlink:actuate="onRequest" xlink:href="Domain.html" xlink:show="new" xlink:title="Domain.html" xlink:type="simple"><g id="elem_nz.ac.wgtn.swen225.lc.domain.Domain"><rect codeLine="5" fill="#F1F1F1" height="306.6875" id="nz.ac.wgtn.swen225.lc.domain.Domain" rx="2.5" ry="2.5" style="stroke:#181818;stroke-width:0.5;" width="607" x="7" y="7"/><ellipse cx="232.75" cy="25.9688" fill="#ADD1B2" rx="11" ry="11" style="stroke:#181818;stroke-width:1.0;"/><path d="M235.7188,31.6094 Q235.1406,31.9063 234.5,32.0469 Q233.8594,32.2031 233.1563,32.2031 Q230.6563,32.2031 229.3281,30.5625 Q228.0156,28.9063 228.0156,25.7813 Q228.0156,22.6563 229.3281,21 Q230.6563,19.3438 233.1563,19.3438 Q233.8594,19.3438 234.5,19.5 Q235.1563,19.6563 235.7188,19.9531 L235.7188,22.6719 Q235.0938,22.0938 234.5,21.8281 Q233.9063,21.5469 233.2813,21.5469 Q231.9375,21.5469 231.25,22.625 Q230.5625,23.6875 230.5625,25.7813 Q230.5625,27.875 231.25,28.9531 Q231.9375,30.0156 233.2813,30.0156 Q233.9063,30.0156 234.5,29.75 Q235.0938,29.4688 235.7188,28.8906 L235.7188,31.6094 Z " fill="#000000"/><text fill="#000000" font-family="sans-serif" font-size="14" lengthAdjust="spacing" textLength="53" x="300.25" y="24.9951">Domain</text><text fill="#000000" font-family="sans-serif" font-size="10" lengthAdjust="spacing" textLength="147" x="253.25" y="37.5791">nz.ac.wgtn.swen225.lc.domain</text><line style="stroke:#181818;stroke-width:0.5;" x1="8" x2="613" y1="44.9375" y2="44.9375"/><ellipse cx="18" cy="58.5859" fill="#84BE84" rx="3" ry="3" style="stroke:#038048;stroke-width:1.0;"/><text fill="#000000" font-family="sans-serif" font-size="14" lengthAdjust="spacing" textLength="581" x="27" y="61.9326">buildNewLevel(TileType[], Chap, List&lt;EnemyActor&gt;, List&lt;TileType&gt;, String, int): void</text><ellipse cx="18" cy="74.8828" fill="#84BE84" rx="3" ry="3" style="stroke:#038048;stroke-width:1.0;"/><text fill="#000000" font-family="sans-serif" font-size="14" lengthAdjust="spacing" textLength="252" x="27" y="78.2295">addObserver(DomainObserver): void</text><ellipse cx="18" cy="91.1797" fill="#84BE84" rx="3" ry="3" style="stroke:#038048;stroke-width:1.0;"/><text fill="#000000" font-family="sans-serif" font-size="14" lengthAdjust="spacing" textLength="183" x="27" y="94.5264">moveChap(Direction): void</text><ellipse cx="18" cy="107.4766" fill="#84BE84" rx="3" ry="3" style="stroke:#038048;stroke-width:1.0;"/><text fill="#000000" font-family="sans-serif" font-size="14" lengthAdjust="spacing" textLength="149" x="27" y="110.8232">getLevelNumber(): int</text><ellipse cx="18" cy="123.7734" fill="#84BE84" rx="3" ry="3" style="stroke:#038048;stroke-width:1.0;"/><text fill="#000000" font-family="sans-serif" font-size="14" lengthAdjust="spacing" textLength="142" x="27" y="127.1201">getTiles(): TileType[]</text><ellipse cx="18" cy="140.0703" fill="#84BE84" rx="3" ry="3" style="stroke:#038048;stroke-width:1.0;"/><text fill="#000000" font-family="sans-serif" font-size="14" lengthAdjust="spacing" textLength="114" x="27" y="143.417">getChap(): Chap</text><ellipse cx="18" cy="156.3672" fill="#84BE84" rx="3" ry="3" style="stroke:#038048;stroke-width:1.0;"/><text fill="#000000" font-family="sans-serif" font-size="14" lengthAdjust="spacing" textLength="278" x="27" y="159.7139">getEnemyActorList(): List&lt;EnemyActor&gt;</text><ellipse cx="18" cy="172.6641" fill="#84BE84" rx="3" ry="3" style="stroke:#038048;stroke-width:1.0;"/><text fill="#000000" font-family="sans-serif" font-size="14" lengthAdjust="spacing" textLength="131" x="27" y="176.0107">isOnInfo(): boolean</text><ellipse cx="18" cy="188.9609" fill="#84BE84" rx="3" ry="3" style="stroke:#038048;stroke-width:1.0;"/><text fill="#000000" font-family="sans-serif" font-size="14" lengthAdjust="spacing" textLength="107" x="27" y="192.3076">getInfo(): String</text><ellipse cx="18" cy="205.2578" fill="#84BE84" rx="3" ry="3" style="stroke:#038048;stroke-width:1.0;"/><text fill="#000000" font-family="sans-serif" font-size="14" lengthAdjust="spacing" textLength="129" x="27" y="208.6045">getWon(): boolean</text><ellipse cx="18" cy="221.5547" fill="#84BE84" rx="3" ry="3" style="stroke:#038048;stroke-width:1.0;"/><text fill="#000000" font-family="sans-serif" font-size="14" lengthAdjust="spacing" textLength="138" x="27" y="224.9014">getFailed(): boolean</text><ellipse cx="18" cy="237.8516" fill="#84BE84" rx="3" ry="3" style="stroke:#038048;stroke-width:1.0;"/><text fill="#000000" font-family="sans-serif" font-size="14" lengthAdjust="spacing" textLength="165" x="27" y="241.1982">setFailed(boolean): void</text><ellipse cx="18" cy="254.1484" fill="#84BE84" rx="3" ry="3" style="stroke:#038048;stroke-width:1.0;"/><text fill="#000000" font-family="sans-serif" font-size="14" lengthAdjust="spacing" textLength="156" x="27" y="257.4951">setWon(boolean): void</text><ellipse cx="18" cy="270.4453" fill="#84BE84" rx="3" ry="3" style="stroke:#038048;stroke-width:1.0;"/><text fill="#000000" font-family="sans-serif" font-size="14" lengthAdjust="spacing" textLength="116" x="27" y="273.792">getMaze(): Maze</text><ellipse cx="18" cy="286.7422" fill="#84BE84" rx="3" ry="3" style="stroke:#038048;stroke-width:1.0;"/><text fill="#000000" font-family="sans-serif" font-size="14" lengthAdjust="spacing" textLength="143" x="27" y="290.0889">setMaze(Maze): void</text><ellipse cx="18" cy="303.0391" fill="#84BE84" rx="3" ry="3" style="stroke:#038048;stroke-width:1.0;"/><text fill="#000000" font-family="sans-serif" font-size="14" lengthAdjust="spacing" textLength="194" x="27" y="306.3857">getTreasureRemaining(): int</text></g></a><text fill="#888888" font-family="sans-serif" font-size="10" lengthAdjust="spacing" textLength="186" x="217" y="329.9697">UMLDoclet 2.1.0, PlantUML 1.2022.14</text><!--SRC=[VPDTQy8m58RlzoiEmi2n4bIs6n5Xp0q6Vepfs8Np8csFDf2Ub2GgElRVbxHrNVrOBvhcF6_Uyz4M0C2W1U8fcen7ECMCQswL1bA4Lmv38c84J3ExWwL06PlZQ8esKIwSnoF9ZO56puWzTjjt_O5AkQ1FAWEjFkqPZzXsPOcPBLAdSyzanE9SrW1ku3y1A-nWFYyUM69JkLZ0LvxRNxVXMiXuZDiXRb0sPqBYR9VXV170OyAp08R2sDuJORfxY5oV_J9o4Bhzr6f1gm04sPikR9I8AtSUnvFGeDwWRXOb7BOdqbHjqATi3eJ6o0f59v8LshpCyJeDdQ7ZBcSD-xAC1rKZDPudSDYlDL1rwDlpakF6Axam4tgXfVAgK2c9d6fU1rOCfeO-55qwzSnToV5PQdvfYKucOmhhIzZPZ_WUlRbVQ-Tou6_dJiqqShFM-8R-tRbk_Wxzk_o4aIngM2hbb_VHSA0YwNwI3ckpLW2lafDrKRXsRzq8Fu0V]--></g></svg>